<svg width="81" height="18" xmlns="http://www.w3.org/2000/svg">
 <!-- Generator: Sketch 53 (72520) - https://sketchapp.com -->

 <title>Group 6</title>
 <desc>Created with Sketch.</desc>
 <g>
  <title>background</title>
  <rect fill="none" id="canvas_background" height="402" width="582" y="-1" x="-1"/>
 </g>
 <g>
  <title>Layer 1</title>
  <polygon points="10,12.826086044311523 12.529440879821777,17.5 21,17.5 14.23528003692627,5 " fill="#FFB900" id="Fill-1"/>
  <polygon points="7.5,17 11.5,17 9.500041961669922,13.5 " fill="#FF0078" id="Fill-2"/>
  <polygon points="9.630257606506348,0 0,17 6.7393951416015625,17 13,5.90745735168457 9.630346298217773,0 " fill="#712DFF" id="Fill-3"/>
  <path fill-rule="nonzero" fill="#ffffff" id="YoraUI" d="m29.84473,9.83594l2.81103,-6.08594l3.04297,0l-4.43457,8.60938l0,4.89843l-2.82959,0l0,-4.89843l-4.43457,-8.60938l3.05225,0l2.79248,6.08594zm6.49414,2.31006c0,-0.99578 0.19173,-1.8833 0.57519,-2.6626c0.38347,-0.7793 0.93546,-1.38232 1.65601,-1.80908c0.72054,-0.42676 1.55704,-0.64014 2.50952,-0.64014c1.3545,0 2.46004,0.41438 3.31665,1.24316c0.85661,0.82878 1.33439,1.95442 1.43335,3.37696l0.01855,0.68652c0,1.54005 -0.42984,2.77547 -1.28955,3.7063c-0.8597,0.93083 -2.01317,1.39624 -3.46045,1.39624c-1.44727,0 -2.60229,-0.46386 -3.46508,-1.3916c-0.8628,-0.92774 -1.29419,-2.18945 -1.29419,-3.78516l0,-0.1206zm2.68115,0.19482c0,0.95248 0.17936,1.68074 0.53809,2.18481c0.35872,0.50408 0.87206,0.75611 1.54003,0.75611c0.64942,0 1.15658,-0.24894 1.52149,-0.74683c0.36491,-0.49788 0.54736,-1.29418 0.54736,-2.38891c0,-0.93393 -0.18245,-1.65755 -0.54736,-2.1709c-0.36491,-0.51335 -0.87825,-0.77002 -1.54004,-0.77002c-0.6556,0 -1.16276,0.25512 -1.52148,0.76538c-0.35873,0.51026 -0.53809,1.30037 -0.53809,2.37036zm14.12012,-2.60693c-0.36491,-0.04948 -0.68653,-0.07422 -0.96485,-0.07422c-1.01433,0 -1.67919,0.34326 -1.99463,1.02978l0,6.56836l-2.68115,0l0,-10.03808l2.53272,0l0.07422,1.19677c0.53808,-0.92155 1.28336,-1.38232 2.23584,-1.38232c0.29687,0 0.57519,0.0402 0.83496,0.12061l-0.03711,2.5791zm7.10644,7.52392c-0.1237,-0.24121 -0.21338,-0.54117 -0.26904,-0.8999c-0.64942,0.72364 -1.49365,1.08545 -2.53272,1.08545c-0.9834,0 -1.79825,-0.2845 -2.44458,-0.85352c-0.64632,-0.56901 -0.96948,-1.28645 -0.96948,-2.15234c0,-1.06381 0.39428,-1.88021 1.18286,-2.44922c0.78858,-0.56901 1.92814,-0.85661 3.4187,-0.86279l1.23389,0l0,-0.5752c0,-0.46387 -0.11906,-0.83496 -0.35718,-1.11328c-0.23812,-0.27832 -0.61385,-0.41748 -1.12719,-0.41748c-0.4515,0 -0.80559,0.10824 -1.06226,0.32471c-0.25667,0.21647 -0.38501,0.51334 -0.38501,0.89062l-2.68115,0c0,-0.58138 0.17936,-1.11946 0.53808,-1.61425c0.35873,-0.4948 0.86589,-0.8829 1.52149,-1.16431c0.6556,-0.28142 1.3916,-0.42212 2.20801,-0.42212c1.23698,0 2.21882,0.31079 2.94555,0.93237c0.72673,0.62159 1.09009,1.4952 1.09009,2.62085l0,4.35108c0.00619,0.95248 0.13916,1.67301 0.39893,2.16162l0,0.15771l-2.70899,0zm-2.21728,-1.86474c0.39583,0 0.76074,-0.08814 1.09472,-0.26441c0.33399,-0.17627 0.58138,-0.41284 0.74219,-0.70971l0,-1.72559l-1.00195,0c-1.34213,0 -2.05648,0.46386 -2.14307,1.3916l-0.00928,0.15772c0,0.33398 0.11752,0.60921 0.35254,0.82568c0.23503,0.21647 0.55664,0.32471 0.96485,0.32471zm16.98681,-11.64307l0,8.89697c0,1.4782 -0.46231,2.64713 -1.38696,3.50684c-0.92465,0.8597 -2.1879,1.28955 -3.78979,1.28955c-1.57716,0 -2.82959,-0.41748 -3.75733,-1.25244c-0.92774,-0.83497 -1.40088,-1.98225 -1.41943,-3.4419l0,-8.99902l2.7832,0l0,8.91553c0,0.88444 0.21183,1.52921 0.6355,1.93432c0.42367,0.40512 1.00968,0.60767 1.75806,0.60767c1.56478,0 2.35953,-0.82258 2.38427,-2.46777l0,-8.98975l2.79248,0zm5.2417,13.50781l-2.7832,0l0,-13.50781l2.7832,0l0,13.50781z"/>
 </g>
</svg>