<?xml version="1.0" encoding="UTF-8"?>
<svg width="81px" height="18px" viewBox="0 0 81 18" version="1.1" xmlns="http://www.w3.org/2000/svg" xmlns:xlink="http://www.w3.org/1999/xlink">
    <!-- Generator: Sketch 53 (72520) - https://sketchapp.com -->
    <title>Group 6</title>
    <desc>Created with Sketch.</desc>
    <g id="Page-1" stroke="none" stroke-width="1" fill="none" fill-rule="evenodd">
        <g id="Azia-New" transform="translate(-24.000000, -24.000000)">
            <g id="Group-6" transform="translate(24.000000, 24.000000)">
                <polygon id="Fill-1" fill="#FFB900" points="10 12.8260862 12.5294407 17.5 21 17.5 14.2352797 5"></polygon>
                <polygon id="Fill-2" fill="#FF0078" points="7.5 17 11.5 17 9.50004186 13.5"></polygon>
                <polygon id="Fill-3" fill="#712DFF" points="9.63025804 -1.0658141e-14 9.76996262e-15 17 6.73939555 17 13 5.90745815 9.63034641 -1.0658141e-14"></polygon>
                <path d="M29.8447266,9.8359375 L32.6557617,3.75 L35.6987305,3.75 L31.2641602,12.359375 L31.2641602,17.2578125 L28.4345703,17.2578125 L28.4345703,12.359375 L24,3.75 L27.0522461,3.75 L29.8447266,9.8359375 Z M36.3388672,12.1459961 C36.3388672,11.1502229 36.530597,10.2626992 36.9140625,9.48339844 C37.297528,8.70409767 37.8495244,8.10107635 38.5700684,7.67431641 C39.2906123,7.24755646 40.1271111,7.03417969 41.0795898,7.03417969 C42.4340888,7.03417969 43.5396279,7.44856356 44.3962402,8.27734375 C45.2528526,9.10612394 45.730631,10.2317637 45.8295898,11.6542969 L45.8481445,12.3408203 C45.8481445,13.8808671 45.4182986,15.1162877 44.5585938,16.0471191 C43.6988889,16.9779506 42.5454174,17.4433594 41.0981445,17.4433594 C39.6508717,17.4433594 38.4958539,16.9794968 37.6330566,16.0517578 C36.7702594,15.1240188 36.3388672,13.8623127 36.3388672,12.2666016 L36.3388672,12.1459961 Z M39.0200195,12.3408203 C39.0200195,13.293299 39.1993797,14.0215632 39.5581055,14.5256348 C39.9168312,15.0297063 40.4301724,15.2817383 41.0981445,15.2817383 C41.7475618,15.2817383 42.2547182,15.0327987 42.6196289,14.5349121 C42.9845396,14.0370255 43.1669922,13.2407281 43.1669922,12.1459961 C43.1669922,11.2120722 42.9845396,10.4884466 42.6196289,9.97509766 C42.2547182,9.46174874 41.741377,9.20507812 41.0795898,9.20507812 C40.4239876,9.20507812 39.9168312,9.46020253 39.5581055,9.97045898 C39.1993797,10.4807154 39.0200195,11.270828 39.0200195,12.3408203 Z M53.1401367,9.73388672 C52.775226,9.6844073 52.4536147,9.65966797 52.175293,9.65966797 C51.160965,9.65966797 50.4960953,10.0029263 50.1806641,10.6894531 L50.1806641,17.2578125 L47.4995117,17.2578125 L47.4995117,7.21972656 L50.0322266,7.21972656 L50.1064453,8.41650391 C50.6445339,7.49494982 51.3898064,7.03417969 52.3422852,7.03417969 C52.6391616,7.03417969 52.9174792,7.07438111 53.1772461,7.15478516 L53.1401367,9.73388672 Z M60.246582,17.2578125 C60.1228835,17.0166004 60.0332034,16.7166359 59.9775391,16.3579102 C59.3281218,17.0815466 58.4838919,17.4433594 57.4448242,17.4433594 C56.4614209,17.4433594 55.646569,17.158857 55.0002441,16.5898438 C54.3539193,16.0208305 54.0307617,15.3033897 54.0307617,14.4375 C54.0307617,13.3736926 54.4250449,12.5572945 55.213623,11.9882812 C56.0022012,11.419268 57.1417569,11.1316732 58.6323242,11.1254883 L59.8662109,11.1254883 L59.8662109,10.550293 C59.8662109,10.0864235 59.7471529,9.71533342 59.5090332,9.43701172 C59.2709135,9.15869001 58.8951849,9.01953125 58.3818359,9.01953125 C57.9303363,9.01953125 57.5762545,9.12776584 57.3195801,9.34423828 C57.0629056,9.56071072 56.9345703,9.85758275 56.9345703,10.2348633 L54.253418,10.2348633 C54.253418,9.65348017 54.4327782,9.11539961 54.7915039,8.62060547 C55.1502297,8.12581133 55.657386,7.737713 56.3129883,7.45629883 C56.9685905,7.17488466 57.7045858,7.03417969 58.5209961,7.03417969 C59.7579814,7.03417969 60.7398238,7.3449676 61.4665527,7.96655273 C62.1932816,8.58813787 62.5566406,9.46174567 62.5566406,10.5874023 L62.5566406,14.9384766 C62.5628256,15.8909553 62.6957995,16.6114884 62.9555664,17.1000977 L62.9555664,17.2578125 L60.246582,17.2578125 Z M58.0292969,15.3930664 C58.4251322,15.3930664 58.7900374,15.3049325 59.1240234,15.1286621 C59.4580095,14.9523917 59.7054028,14.7158218 59.8662109,14.4189453 L59.8662109,12.6933594 L58.8642578,12.6933594 C57.5221287,12.6933594 56.8077804,13.1572219 56.7211914,14.0849609 L56.7119141,14.2426758 C56.7119141,14.5766618 56.8294259,14.8518869 57.0644531,15.0683594 C57.2994803,15.2848318 57.6210917,15.3930664 58.0292969,15.3930664 Z M75.0161133,3.75 L75.0161133,12.6469727 C75.0161133,14.1251702 74.5537969,15.2941038 73.6291504,16.1538086 C72.7045038,17.0135134 71.4412515,17.4433594 69.8393555,17.4433594 C68.2621991,17.4433594 67.0097703,17.0258831 66.0820312,16.190918 C65.1542922,15.3559529 64.6811524,14.2086662 64.6625977,12.7490234 L64.6625977,3.75 L67.4458008,3.75 L67.4458008,12.6655273 C67.4458008,13.5499719 67.6576313,14.1947408 68.0812988,14.5998535 C68.5049663,15.0049662 69.0909793,15.2075195 69.8393555,15.2075195 C71.4041419,15.2075195 72.1988931,14.3849366 72.2236328,12.7397461 L72.2236328,3.75 L75.0161133,3.75 Z M80.2578125,17.2578125 L77.4746094,17.2578125 L77.4746094,3.75 L80.2578125,3.75 L80.2578125,17.2578125 Z" id="YoraUI" fill="#031B4E" fill-rule="nonzero"></path>
            </g>
        </g>
    </g>
</svg>