<svg xmlns="http://www.w3.org/2000/svg" xmlns:xlink="http://www.w3.org/1999/xlink" width="139" height="110" viewBox="0 0 139 110">
    <defs>
        <path id="a" d="M.132.511h138.43v108.95H.132z"/>
        <path id="c" d="M.168.31h114.036v28.268H.168z"/>
        <path id="e" d="M.394 40.526h9.25C24.705 24.464 22.624.384 22.624.384-1.043 9.402.393 40.526.393 40.526"/>
        <path id="g" d="M4.38 40.526H.446c12.89-13.483 13.468-32.612 13.322-38.41a31.535 31.535 0 0 1 3.847-1.73"/>
        <path id="i" d="M.394 40.526h9.25C24.705 24.464 22.624.384 22.624.384-1.043 9.402.393 40.526.393 40.526"/>
        <path id="k" d="M.394 40.526h9.25C24.705 24.464 22.624.384 22.624.384-1.043 9.402.393 40.526.393 40.526"/>
        <path id="m" d="M.394 40.526h9.25C24.705 24.464 22.624.384 22.624.384-1.043 9.402.393 40.526.393 40.526"/>
        <path id="o" d="M.394 40.526h9.25C24.705 24.464 22.624.384 22.624.384-1.043 9.402.393 40.526.393 40.526"/>
        <path id="q" d="M.394 40.526h9.25C24.705 24.464 22.624.384 22.624.384-1.043 9.402.393 40.526.393 40.526"/>
        <path id="s" d="M.394 40.526h9.25C24.705 24.464 22.624.384 22.624.384-1.043 9.402.393 40.526.393 40.526"/>
        <path id="u" d="M.394 40.526h9.25C24.705 24.464 22.624.384 22.624.384-1.043 9.402.393 40.526.393 40.526"/>
        <path id="w" d="M.275 25.524h9.713C24.372 17.217 28.675.226 28.675.226c-.4-.01-.795-.015-1.184-.015C.276.21.275 25.524.275 25.524"/>
        <path id="y" d="M.275 25.524h9.713C24.372 17.217 28.675.226 28.675.226c-.4-.01-.795-.015-1.184-.015C.276.21.275 25.524.275 25.524"/>
        <path id="A" d="M.275 25.524h9.713C24.372 17.217 28.675.226 28.675.226c-.4-.01-.795-.015-1.184-.015C.276.21.275 25.524.275 25.524"/>
        <path id="C" d="M.275 25.524h9.713C24.372 17.217 28.675.226 28.675.226c-.4-.01-.795-.015-1.184-.015C.276.21.275 25.524.275 25.524"/>
        <path id="E" d="M.275 25.524h9.713C24.372 17.217 28.675.226 28.675.226c-.4-.01-.795-.015-1.184-.015C.276.21.275 25.524.275 25.524"/>
        <path id="G" d="M.275 25.524h9.713C24.372 17.217 28.675.226 28.675.226c-.4-.01-.795-.015-1.184-.015C.276.21.275 25.524.275 25.524"/>
        <path id="I" d="M.275 25.524h9.713C24.372 17.217 28.675.226 28.675.226c-.4-.01-.795-.015-1.184-.015C.276.21.275 25.524.275 25.524"/>
        <path id="K" d="M22.675.228s-4.283 16.99-18.61 25.296H.145C13.906 17.544 18.403 1.56 18.741.306"/>
        <path id="M" d="M7.784 3.122c-1.381 2.126-1.607 4.796-1.76 7.345-.149 2.543-.294 5.206-1.559 7.406-1.026 1.783-2.753 3.203-3.221 5.21-.408 1.74.218 3.485.817 5.227.222.65.44 1.301.6 1.949.266 1.053.375 2.104.095 3.147-.313 1.176-1.091 2.16-1.651 3.239a9.502 9.502 0 0 0-.694 6.879c.527 1.863 1.436 3.738 2.854 5.003h12.868c.941-.787 1.522-2.1 1.49-3.383-.05-2.034-.934-3.931-1.77-5.777-.833-1.845-1.655-3.795-1.557-5.825.055-1.138.393-2.222.814-3.283.263-.655.557-1.302.84-1.95.048-.114.1-.229.146-.343.77-1.809 1.389-3.839.815-5.722-.488-1.612-1.786-2.858-2.368-4.437-.687-1.871-.298-3.964.31-5.865.603-1.898 1.421-3.758 1.589-5.743.167-1.99-.484-4.212-2.175-5.222a3.677 3.677 0 0 0-1.906-.512c-1.752 0-3.574 1.111-4.577 2.657"/>
        <path id="O" d="M7.218 45.564c.034 1.295-.563 2.62-1.529 3.415h-3.35c.966-.795 1.563-2.12 1.53-3.415-.053-2.053-.96-3.968-1.818-5.83-.854-1.863-1.697-3.83-1.596-5.88.055-1.149.402-2.243.835-3.314.268-.66.571-1.314.862-1.967l.149-.346c.791-1.826 1.425-3.875.835-5.775-.499-1.627-1.831-2.885-2.428-4.48-.705-1.888-.306-4 .318-5.919.618-1.915 1.458-3.793 1.63-5.796C2.827 4.248 2.16 2.005.425.987A3.376 3.376 0 0 0 .07.802C1.298.34 2.64.322 3.775.986c1.735 1.02 2.402 3.262 2.231 5.27-.172 2.004-1.011 3.882-1.63 5.797-.624 1.919-1.023 4.031-.318 5.92.597 1.594 1.93 2.852 2.429 4.48.59 1.9-.045 3.948-.836 5.774-.048.115-.1.23-.149.346-.29.653-.593 1.307-.862 1.967-.432 1.071-.78 2.165-.835 3.315-.101 2.05.742 4.016 1.596 5.879"/>
        <path id="Q" d="M.887 7.106l.022.115a53.384 53.384 0 0 0 .25 1.293c.081.394.165.797.253 1.214.037.168.078.34.113.516.045.18.085.363.13.547.07.3.142.607.22.918.106.431.216.873.337 1.32.085.328.177.661.272.999.051.184.107.375.161.562.955 3.316 2.254 6.968 4.02 10.665 2.694 5.65 6.468 11.411 11.757 16.266h12.08c-.157-1.476-1.18-9.702-5.142-18.506C21.605 14.687 15.218 5.843 4.437 1.73 3.736 1.463 3.02 1.216 2.282.99 2.098.935 1.915.88 1.727.827a14.112 14.112 0 0 0-.56-.157C.945.61.73.553.504.497.345.456.18.415.013.377c0 0 .125 2.634.874 6.729"/>
        <path id="S" d="M23.813 41.521H18.8c-5.399-4.855-9.25-10.617-12-16.266C5 21.558 3.675 17.905 2.7 14.59a51.473 51.473 0 0 1-.44-1.562 53.49 53.49 0 0 1-.346-1.319c-.079-.31-.153-.618-.224-.918-.046-.184-.086-.367-.132-.547-.037-.175-.078-.348-.116-.516-.09-.417-.176-.82-.258-1.214-.057-.27-.109-.528-.158-.783a30.39 30.39 0 0 1-.097-.51C.92 7.18.913 7.143.905 7.105.145 3.011.017.381.017.381.186.418.351.46.515.497a34.805 34.805 0 0 1 1.248.33 35.095 35.095 0 0 1 2.765.903c.412 3.704 1.746 12.22 5.844 21.285"/>
        <path id="U" d="M18.422 41.521h12.333S27.462 6.803.014.377c0 0 .992 25.096 18.408 41.144"/>
        <path id="W" d="M18.422 41.521h12.333S27.462 6.803.014.377c0 0 .992 25.096 18.408 41.144"/>
        <path id="Y" d="M18.422 41.521h12.333S27.462 6.803.014.377c0 0 .992 25.096 18.408 41.144"/>
        <path id="aa" d="M18.422 41.521h12.333S27.462 6.803.014.377c0 0 .992 25.096 18.408 41.144"/>
        <path id="ac" d="M18.422 41.521h12.333S27.462 6.803.014.377c0 0 .992 25.096 18.408 41.144"/>
        <path id="ae" d="M18.422 41.521h12.333S27.462 6.803.014.377c0 0 .992 25.096 18.408 41.144"/>
        <path id="ag" d="M18.422 41.521h12.333S27.462 6.803.014.377c0 0 .992 25.096 18.408 41.144"/>
        <path id="ai" d="M.345.534s4.91 18.765 21.32 27.94h11.08S32.743.518 1.695.517c-.444 0-.893.006-1.35.017"/>
        <path id="ak" d="M.345.534s4.91 18.765 21.32 27.94h11.08S32.743.518 1.695.517c-.444 0-.893.006-1.35.017"/>
        <path id="am" d="M.345.534s4.91 18.765 21.32 27.94h11.08S32.743.518 1.695.517c-.444 0-.893.006-1.35.017"/>
        <path id="ao" d="M.345.534s4.91 18.765 21.32 27.94h11.08S32.743.518 1.695.517c-.444 0-.893.006-1.35.017"/>
        <path id="aq" d="M.345.534s4.91 18.765 21.32 27.94h11.08S32.743.518 1.695.517c-.444 0-.893.006-1.35.017"/>
        <path id="as" d="M.345.534s4.91 18.765 21.32 27.94h11.08S32.743.518 1.695.517c-.444 0-.893.006-1.35.017"/>
        <path id="au" d="M.345.534s4.91 18.765 21.32 27.94h11.08S32.743.518 1.695.517c-.444 0-.893.006-1.35.017"/>
        <path id="aw" d="M.34.542A46.868 46.868 0 0 1 4.768.63c.38 1.402 5.44 19.284 20.921 28.21h-4.41"/>
        <path id="ay" d="M.451 24.98c11.008-4.919 23.466-1.595 27.652-.215.985.324 2.079.04 2.75-.743 2.22-2.595 2.25-5.422 1.96-7.184a2.538 2.538 0 0 0-1.981-2.053C9.26 10.13 5.316.471 5.316.471L.45 24.98z"/>
        <linearGradient id="az" x1="0%" x2="100.001%" y1="50%" y2="50%">
            <stop offset="0%" stop-color="#FFA897"/>
            <stop offset="100%" stop-color="#F43D3B"/>
        </linearGradient>
        <path id="aB" d="M3.089 1.252c-.245 1.938-.9 5.196-2.652 8.333a.953.953 0 0 0 .613 1.403c1.477.332 3.944.92 5.9 1.556 1.446.471 3.06.077 4.067-1.06 1.298-1.47 2.472-3.969 1.375-7.867-.259-.917-1.006-1.612-1.928-1.847-1.42-.362-3.66-.968-5.555-1.63a1.4 1.4 0 0 0-.461-.08c-.667 0-1.27.485-1.36 1.192"/>
        <path id="aD" d="M2.476.271c-.37.017-.71.236-.911.578C1.095 1.672.417 3.157.493 4.8c.021.462.28.873.68 1.06.008.002.012.007.02.013.064.027.132.058.205.09l-.001.004c1.666.784 5.4 2.64 6.378 3.859.61-1.6 1.145-3.408 1.55-5.347.242-1.151.42-2.281.544-3.37A287.11 287.11 0 0 1 2.686.271a.435.435 0 0 0-.084-.005.448.448 0 0 0-.054-.004.31.31 0 0 0-.072.008"/>
        <path id="aF" d="M3.116.526L.2 3.503 7.88 9.565l.91-1.004z"/>
        <path id="aH" d="M0 3.651l12.573 1.183.31-2.011L.56.123z"/>
        <path id="aJ" d="M.268 4.103l1.5 2.678 8.92-4.477-.88-1.793z"/>
        <path id="aL" d="M38.122.111s-3.595 2.08-7.392 8.769c-4.945 2.365-11.762 5.373-17.545 7.013-3.118.885-6.284-1.314-6.482-4.535a44.338 44.338 0 0 1-.012-4.955c.104-2.04-1.997-3.563-3.877-2.737l-.1.045a2.794 2.794 0 0 0-1.55 2.036 45.028 45.028 0 0 0-.607 5.273c-.444 7.83 5.9 14.4 13.784 14.347a69.136 69.136 0 0 0 10.513-.865 78.195 78.195 0 0 0-.555 2.474c-.864 4.142-1.548 8.884-1.942 14.301 0 0 9.797 15.502 36.117 4.096 0 0-2.856-35.382-12.13-45.262h-8.222z"/>
        <linearGradient id="aM" x1="28.945%" x2="97.883%" y1="29.32%" y2="66.101%">
            <stop offset="0%" stop-color="#FFA897"/>
            <stop offset="100%" stop-color="#F43D3B"/>
        </linearGradient>
        <path id="aO" d="M.12 5.61a5.29 5.29 0 0 0 10.58 0 5.29 5.29 0 0 0-10.58 0"/>
        <path id="aQ" d="M.034 4.953a4.797 4.797 0 0 0 9.594 0 4.797 4.797 0 0 0-9.594 0"/>
        <path id="aS" d="M.183 7.11a6.886 6.886 0 0 0 6.886 6.886 6.886 6.886 0 0 0 0-13.772A6.886 6.886 0 0 0 .183 7.11"/>
    </defs>
    <g fill="none" fill-rule="evenodd">
        <g>
            <mask id="b" fill="#fff">
                <use xlink:href="#a"/>
            </mask>
            <path fill="#E1E2FF" d="M9.373 109.46H131.94c7.476-9.798 8-24.876 4.657-36.726-1.72-6.099-4.89-11.778-5.974-18.02-1.51-8.7 1.166-17.675-.005-26.427-1.89-14.144-14.598-25.794-28.805-27.531C87.606-.98 72.966 6.663 65.348 18.744c-3.208 5.088-5.848 11.37-11.531 13.374-7.152 2.522-14.403-3.236-21.898-4.403-6.85-1.067-13.923 1.932-18.866 6.78C8.11 39.34 5.081 45.837 3.202 52.491c-5.15 18.231-4.285 41.155 6.171 56.969" mask="url(#b)"/>
        </g>
        <g transform="translate(18.93 80.882)">
            <mask id="d" fill="#fff">
                <use xlink:href="#c"/>
            </mask>
            <path fill="#8D84FB" d="M97.04.31H17.331a4.253 4.253 0 0 0-3.562 1.927L.855 22.032a4.228 4.228 0 0 0-.687 2.31 4.243 4.243 0 0 0 4.25 4.237h105.537a4.243 4.243 0 0 0 4.249-4.238c0-.82-.239-1.622-.687-2.309L100.603 2.237A4.252 4.252 0 0 0 97.04.31" mask="url(#d)"/>
        </g>
        <path fill="#EFEDF8" d="M118.859 99.309l-8.05-14.376a3.5 3.5 0 0 0-3.057-1.79H39.316a3.505 3.505 0 0 0-3.032 1.745l-8.353 14.399a1.434 1.434 0 0 0 1.24 2.151h88.433c1.095 0 1.79-1.177 1.255-2.129"/>
        <path fill="#796FE5" d="M122.064 92.217c.319 1.188-.417 2.184-1.643 2.224-1.226.04-2.477-.889-2.796-2.077-.319-1.188.417-2.184 1.642-2.225 1.226-.04 2.478.89 2.797 2.078M133.134 105.223a4.242 4.242 0 0 1-4.249 4.237H23.347a4.242 4.242 0 0 1-4.25-4.237c0-.426.063-.851.194-1.255h113.65c.13.404.193.829.193 1.255"/>
        <g transform="translate(90 61)">
            <mask id="f" fill="#fff">
                <use xlink:href="#e"/>
            </mask>
            <path d="M.394 40.526h9.25C24.705 24.464 22.624.384 22.624.384-1.043 9.402.393 40.526.393 40.526" mask="url(#f)"/>
        </g>
        <g transform="translate(96 61)">
            <mask id="h" fill="#fff">
                <use xlink:href="#g"/>
            </mask>
            <path d="M4.38 40.526H.446c12.89-13.483 13.468-32.612 13.322-38.41a31.535 31.535 0 0 1 3.847-1.73s2.124 24.08-13.235 40.14" mask="url(#h)"/>
        </g>
        <g transform="translate(90 61)">
            <mask id="j" fill="#fff">
                <use xlink:href="#i"/>
            </mask>
            <path stroke="#FEFEFE" stroke-linecap="round" stroke-linejoin="round" stroke-width=".687" d="M22.624.384S10.378 15.95 5.48 40.526" mask="url(#j)"/>
        </g>
        <g transform="translate(90 61)">
            <mask id="l" fill="#fff">
                <use xlink:href="#k"/>
            </mask>
            <path stroke="#FEFEFE" stroke-linecap="round" stroke-linejoin="round" stroke-width=".687" d="M15.883 11.252s3.532-1.105 6.514-1.415" mask="url(#l)"/>
        </g>
        <g transform="translate(90 61)">
            <mask id="n" fill="#fff">
                <use xlink:href="#m"/>
            </mask>
            <path stroke="#FEFEFE" stroke-linecap="round" stroke-linejoin="round" stroke-width=".687" d="M12.944 17.276s-.827-7.416-.472-10.516" mask="url(#n)"/>
        </g>
        <g transform="translate(90 61)">
            <mask id="p" fill="#fff">
                <use xlink:href="#o"/>
            </mask>
            <path stroke="#FEFEFE" stroke-linecap="round" stroke-linejoin="round" stroke-width=".687" d="M10.714 22.605s4.373-.618 9.335-.735" mask="url(#p)"/>
        </g>
        <g transform="translate(90 61)">
            <mask id="r" fill="#fff">
                <use xlink:href="#q"/>
            </mask>
            <path stroke="#FEFEFE" stroke-linecap="round" stroke-linejoin="round" stroke-width=".687" d="M8.561 28.677s-3.44-7.611-2.587-13.196" mask="url(#r)"/>
        </g>
        <g transform="translate(90 61)">
            <mask id="t" fill="#fff">
                <use xlink:href="#s"/>
            </mask>
            <path stroke="#FEFEFE" stroke-linecap="round" stroke-linejoin="round" stroke-width=".687" d="M6.796 34.772s3.394-1.325 8.998-2.726" mask="url(#t)"/>
        </g>
        <g transform="translate(90 61)">
            <mask id="v" fill="#fff">
                <use xlink:href="#u"/>
            </mask>
            <path stroke="#FEFEFE" stroke-linecap="round" stroke-linejoin="round" stroke-width=".687" d="M6.023 37.974S1.946 31.958 1.616 27.92" mask="url(#v)"/>
        </g>
        <g transform="translate(98 76)">
            <mask id="x" fill="#fff">
                <use xlink:href="#w"/>
            </mask>
            <path d="M.275 25.524h9.713C24.372 17.217 28.675.226 28.675.226c-.4-.01-.795-.015-1.184-.015C.276.21.275 25.524.275 25.524" mask="url(#x)"/>
        </g>
        <g transform="translate(98 76)">
            <mask id="z" fill="#fff">
                <use xlink:href="#y"/>
            </mask>
            <path stroke="#FEFEFE" stroke-linecap="round" stroke-linejoin="round" stroke-width=".687" d="M28.675.226S10.603 8.537 4.946 25.524" mask="url(#z)"/>
        </g>
        <g transform="translate(98 76)">
            <mask id="B" fill="#fff">
                <use xlink:href="#A"/>
            </mask>
            <path stroke="#FEFEFE" stroke-linecap="round" stroke-linejoin="round" stroke-width=".687" d="M19.72 5.883s3.23-.316 6.799.238" mask="url(#B)"/>
        </g>
        <g transform="translate(98 76)">
            <mask id="D" fill="#fff">
                <use xlink:href="#C"/>
            </mask>
            <path stroke="#FEFEFE" stroke-linecap="round" stroke-linejoin="round" stroke-width=".687" d="M15.035 9.961s.26-5.953 2.063-8.247" mask="url(#D)"/>
        </g>
        <g transform="translate(98 76)">
            <mask id="F" fill="#fff">
                <use xlink:href="#E"/>
            </mask>
            <path stroke="#FEFEFE" stroke-linecap="round" stroke-linejoin="round" stroke-width=".687" d="M10.809 14.704s6.166-.591 10.449.526" mask="url(#F)"/>
        </g>
        <g transform="translate(98 76)">
            <mask id="H" fill="#fff">
                <use xlink:href="#G"/>
            </mask>
            <path stroke="#FEFEFE" stroke-linecap="round" stroke-linejoin="round" stroke-width=".687" d="M8.04 18.777s-1.226-6.594.514-12.2" mask="url(#H)"/>
        </g>
        <g transform="translate(98 76)">
            <mask id="J" fill="#fff">
                <use xlink:href="#I"/>
            </mask>
            <path stroke="#FEFEFE" stroke-linecap="round" stroke-linejoin="round" stroke-width=".687" d="M5.872 23.071s3.878-1.15 8.886-.883" mask="url(#J)"/>
        </g>
        <g transform="translate(104 76)">
            <mask id="L" fill="#fff">
                <use xlink:href="#K"/>
            </mask>
            <path d="M22.675.228s-4.283 16.99-18.61 25.296H.145C13.906 17.544 18.403 1.56 18.741.306a41.129 41.129 0 0 1 3.934-.078" mask="url(#L)"/>
        </g>
        <g transform="translate(82 53)">
            <mask id="N" fill="#fff">
                <use xlink:href="#M"/>
            </mask>
            <path d="M7.784 3.122c-1.381 2.126-1.607 4.796-1.76 7.345-.149 2.543-.294 5.206-1.559 7.406-1.026 1.783-2.753 3.203-3.221 5.21-.408 1.74.218 3.485.817 5.227.222.65.44 1.301.6 1.949.266 1.053.375 2.104.095 3.147-.313 1.176-1.091 2.16-1.651 3.239a9.502 9.502 0 0 0-.694 6.879c.527 1.863 1.436 3.738 2.854 5.003h12.868c.941-.787 1.522-2.1 1.49-3.383-.05-2.034-.934-3.931-1.77-5.777-.833-1.845-1.655-3.795-1.557-5.825.055-1.138.393-2.222.814-3.283.263-.655.557-1.302.84-1.95.048-.114.1-.229.146-.343.77-1.809 1.389-3.839.815-5.722-.488-1.612-1.786-2.858-2.368-4.437-.687-1.871-.298-3.964.31-5.865.603-1.898 1.421-3.758 1.589-5.743.167-1.99-.484-4.212-2.175-5.222a3.677 3.677 0 0 0-1.906-.512c-1.752 0-3.574 1.111-4.577 2.657" mask="url(#N)"/>
        </g>
        <path stroke="#FEFEFE" stroke-linecap="round" stroke-linejoin="round" stroke-width=".687" d="M90.77 102.466c1.996-.937 2.875-3.399 2.701-5.597-.175-2.199-1.17-4.232-2.016-6.268-.845-2.036-1.564-4.25-1.15-6.416.314-1.645 1.262-3.128 1.487-4.787.327-2.422-.928-4.875-.485-7.279.39-2.111 2.032-3.827 2.418-5.94.333-1.818-.309-3.653-.655-5.47-.346-1.817-.3-3.946 1.058-5.2"/>
        <g transform="translate(92.716 53)">
            <mask id="P" fill="#fff">
                <use xlink:href="#O"/>
            </mask>
            <path d="M7.218 45.564c.034 1.295-.563 2.62-1.529 3.415h-3.35c.966-.795 1.563-2.12 1.53-3.415-.053-2.053-.96-3.968-1.818-5.83-.854-1.863-1.697-3.83-1.596-5.88.055-1.149.402-2.243.835-3.314.268-.66.571-1.314.862-1.967l.149-.346c.791-1.826 1.425-3.875.835-5.775-.499-1.627-1.831-2.885-2.428-4.48-.705-1.888-.306-4 .318-5.919.618-1.915 1.458-3.793 1.63-5.796C2.827 4.248 2.16 2.005.425.987A3.376 3.376 0 0 0 .07.802C1.298.34 2.64.322 3.775.986c1.735 1.02 2.402 3.262 2.231 5.27-.172 2.004-1.011 3.882-1.63 5.797-.624 1.919-1.023 4.031-.318 5.92.597 1.594 1.93 2.852 2.429 4.48.59 1.9-.045 3.948-.836 5.774-.048.115-.1.23-.149.346-.29.653-.593 1.307-.862 1.967-.432 1.071-.78 2.165-.835 3.315-.101 2.05.742 4.016 1.596 5.879.858 1.862 1.765 3.777 1.817 5.83" mask="url(#P)"/>
        </g>
        <path fill="#1D125C" d="M100.09 101.98s6.621-20.23 20.473-23.96c0 0-13.053 4.874-18.894 23.96h-1.579z"/>
        <path fill="#1D125C" d="M117.483 79.162s7.798-4.796 16.322 1.598c0 0-10.192 2.895-16.322-1.598M111.198 84.369s6.32-4.515 2.059-14.665c0 0-5.105 6.053-2.059 14.665M100.09 101.98s4.512-13.785 13.95-16.327c0 0-8.894 3.322-12.874 16.326h-1.076z"/>
        <path fill="#1D125C" d="M112.76 85.96s5.943-1.894 10.534 3.733c0 0-7.216.243-10.533-3.734M106.723 91.101s3.016-4.35-2.051-9.88c0 0-1.884 5.058 2.05 9.88"/>
        <g transform="translate(31 61)">
            <mask id="R" fill="#fff">
                <use xlink:href="#Q"/>
            </mask>
            <path d="M.887 7.106l.022.115a53.384 53.384 0 0 0 .25 1.293c.081.394.165.797.253 1.214.037.168.078.34.113.516.045.18.085.363.13.547.07.3.142.607.22.918.106.431.216.873.337 1.32.085.328.177.661.272.999.051.184.107.375.161.562.955 3.316 2.254 6.968 4.02 10.665 2.694 5.65 6.468 11.411 11.757 16.266h12.08c-.157-1.476-1.18-9.702-5.142-18.506C21.605 14.687 15.218 5.843 4.437 1.73 3.736 1.463 3.02 1.216 2.282.99 2.098.935 1.915.88 1.727.827a14.112 14.112 0 0 0-.56-.157C.945.61.73.553.504.497.345.456.18.415.013.377c0 0 .125 2.634.874 6.729" mask="url(#R)"/>
        </g>
        <g transform="translate(31 61)">
            <mask id="T" fill="#fff">
                <use xlink:href="#S"/>
            </mask>
            <path d="M23.813 41.521H18.8c-5.399-4.855-9.25-10.617-12-16.266C5 21.558 3.675 17.905 2.7 14.59a51.473 51.473 0 0 1-.44-1.562 53.49 53.49 0 0 1-.346-1.319c-.079-.31-.153-.618-.224-.918-.046-.184-.086-.367-.132-.547-.037-.175-.078-.348-.116-.516-.09-.417-.176-.82-.258-1.214-.057-.27-.109-.528-.158-.783a30.39 30.39 0 0 1-.097-.51C.92 7.18.913 7.143.905 7.105.145 3.011.017.381.017.381.186.418.351.46.515.497a34.805 34.805 0 0 1 1.248.33 35.095 35.095 0 0 1 2.765.903c.412 3.704 1.746 12.22 5.844 21.285 2.889 6.395 7.155 13.063 13.44 18.506" mask="url(#T)"/>
        </g>
        <g>
            <g transform="translate(31 61)">
                <mask id="V" fill="#fff">
                    <use xlink:href="#U"/>
                </mask>
                <path stroke="#FEFEFE" stroke-linecap="round" stroke-linejoin="round" stroke-width=".765" d="M.014.378s15.83 15.488 24.902 42.16" mask="url(#V)"/>
            </g>
            <g transform="translate(31 61)">
                <mask id="X" fill="#fff">
                    <use xlink:href="#W"/>
                </mask>
                <path stroke="#FEFEFE" stroke-linecap="round" stroke-linejoin="round" stroke-width=".765" d="M9.072 11.468s-4.061-.688-7.396-.577" mask="url(#X)"/>
            </g>
            <g transform="translate(31 61)">
                <mask id="Z" fill="#fff">
                    <use xlink:href="#Y"/>
                </mask>
                <path stroke="#FEFEFE" stroke-linecap="round" stroke-linejoin="round" stroke-width=".765" d="M13.212 17.74s-.195-8.403-1.05-11.808" mask="url(#Z)"/>
            </g>
            <g transform="translate(31 61)">
                <mask id="ab" fill="#fff">
                    <use xlink:href="#aa"/>
                </mask>
                <path stroke="#FEFEFE" stroke-linecap="round" stroke-linejoin="round" stroke-width=".765" d="M16.468 23.343s-4.915-.017-10.406.615" mask="url(#ab)"/>
            </g>
            <g transform="translate(31 61)">
                <mask id="ad" fill="#fff">
                    <use xlink:href="#ac"/>
                </mask>
                <path stroke="#FEFEFE" stroke-linecap="round" stroke-linejoin="round" stroke-width=".765" d="M19.75 29.788s2.657-9.022.881-15.123" mask="url(#ad)"/>
            </g>
            <g transform="translate(31 61)">
                <mask id="af" fill="#fff">
                    <use xlink:href="#ae"/>
                </mask>
                <path stroke="#FEFEFE" stroke-linecap="round" stroke-linejoin="round" stroke-width=".765" d="M22.606 36.319s-3.94-.957-10.33-1.66" mask="url(#af)"/>
            </g>
            <g transform="translate(31 61)">
                <mask id="ah" fill="#fff">
                    <use xlink:href="#ag"/>
                </mask>
                <path stroke="#FEFEFE" stroke-linecap="round" stroke-linejoin="round" stroke-width=".765" d="M23.937 39.773s3.597-7.34 3.358-11.896" mask="url(#ah)"/>
            </g>
        </g>
        <g transform="translate(16 73)">
            <mask id="aj" fill="#fff">
                <use xlink:href="#ai"/>
            </mask>
            <path d="M.345.534s4.91 18.765 21.32 27.94h11.08S32.743.518 1.695.517c-.444 0-.893.006-1.35.017" mask="url(#aj)"/>
        </g>
        <g>
            <g transform="translate(16 73)">
                <mask id="al" fill="#fff">
                    <use xlink:href="#ak"/>
                </mask>
                <path stroke="#FEFEFE" stroke-linecap="round" stroke-linejoin="round" stroke-width=".765" d="M.346.534s20.617 9.179 27.07 27.94" mask="url(#al)"/>
            </g>
            <g transform="translate(16 73)">
                <mask id="an" fill="#fff">
                    <use xlink:href="#am"/>
                </mask>
                <path stroke="#FEFEFE" stroke-linecap="round" stroke-linejoin="round" stroke-width=".765" d="M10.56 6.782s-3.682-.35-7.755.262" mask="url(#an)"/>
            </g>
            <g transform="translate(16 73)">
                <mask id="ap" fill="#fff">
                    <use xlink:href="#ao"/>
                </mask>
                <path stroke="#FEFEFE" stroke-linecap="round" stroke-linejoin="round" stroke-width=".765" d="M15.906 11.285s-.298-6.574-2.353-9.107" mask="url(#ap)"/>
            </g>
            <g transform="translate(16 73)">
                <mask id="ar" fill="#fff">
                    <use xlink:href="#aq"/>
                </mask>
                <path stroke="#FEFEFE" stroke-linecap="round" stroke-linejoin="round" stroke-width=".765" d="M20.728 16.523s-7.035-.652-11.92.581" mask="url(#ar)"/>
            </g>
            <g transform="translate(16 73)">
                <mask id="at" fill="#fff">
                    <use xlink:href="#as"/>
                </mask>
                <path stroke="#FEFEFE" stroke-linecap="round" stroke-linejoin="round" stroke-width=".765" d="M23.886 21.022s1.4-7.283-.586-13.474" mask="url(#at)"/>
            </g>
            <g transform="translate(16 73)">
                <mask id="av" fill="#fff">
                    <use xlink:href="#au"/>
                </mask>
                <path stroke="#FEFEFE" stroke-linecap="round" stroke-linejoin="round" stroke-width=".765" d="M26.36 25.764s-4.424-1.27-10.137-.975" mask="url(#av)"/>
            </g>
        </g>
        <g>
            <g transform="translate(15.966 73.082)">
                <mask id="ax" fill="#fff">
                    <use xlink:href="#aw"/>
                </mask>
                <path d="M.34.542S5.16 19.548 21.28 28.841h4.41C10.206 19.914 5.146 2.032 4.766.63A46.868 46.868 0 0 0 .341.542" mask="url(#ax)"/>
            </g>
            <path fill="#1D125C" d="M49.721 101.923s-9.12-28.045-28.2-33.217c0 0 17.98 6.758 26.026 33.217h2.174z"/>
            <path fill="#1D125C" d="M25.762 70.29S15.021 63.64 3.28 72.505c0 0 14.04 4.012 22.483-2.217M34.42 77.508s-8.706-6.259-2.835-20.33c0 0 7.032 8.392 2.835 20.33M50.044 101.923s-5.61-17.246-17.342-20.427c0 0 11.056 4.157 16.004 20.427h1.338z"/>
            <path fill="#1D125C" d="M34.293 81.88s-7.388-2.37-13.094 4.671c0 0 8.97.304 13.094-4.671M41.798 88.313s-3.748-5.443 2.55-12.36c0 0 2.342 6.327-2.55 12.36M96.542 101.978H80.957c-4.035-3.803-7.765-7.83-7.765-7.83-3.285 4.141-4.45 5.792-5.957 7.83H52.077c1.97-6.67 4.57-15.353 5.952-19.943.072-.254.144-.49.21-.713l.739-2.455a53.9 53.9 0 0 0 9.986 2.455c6.594.98 12.192.574 15.921 0 3.14-.484 4.966-1.083 4.966-1.083.042.327.097.69.174 1.083.187.973.475 2.147.835 3.453 1.423 5.121 3.94 12.25 5.682 17.203"/>
            <path fill="#FBBFCE" d="M76.098 43.018c-2.247 0-4.068-1.833-4.068-4.095V25.042h8.135v13.881c0 2.262-1.822 4.095-4.067 4.095"/>
            <path fill="#FBBFCE" d="M72.307 32.236c-4.156-.315-7.272-3.961-6.96-8.146l.865-11.594 15.049 1.138-.864 11.594c-.313 4.185-3.935 7.322-8.09 7.008"/>
            <path fill="#FBBFCE" d="M67.985 20.051c0 1.116-.898 2.02-2.005 2.02a2.012 2.012 0 0 1-2.005-2.02c0-1.115.898-2.019 2.005-2.019 1.107 0 2.005.904 2.005 2.019"/>
            <path fill="#1D125C" d="M86.68 13.829c.304-4.075-2.73-7.627-6.777-7.933l-20.758-1.57c-.993 4.014 1.837 7.774 5.747 8.07l14.61 1.104-.988 13.25c-1.504.545-3.749 1.754-5.063 4.332 0 0-1.403-5.409-7.977-4.925 0 0-1.085 1.707-1.386 4.059-.481 3.76 3.688 6.35 6.784 4.192l.109-.078s8.558 1.402 9.131-5.799l.038.003.163-2.183a10.889 10.889 0 0 0 6.105-9.001l.23-3.086c.006-.075.003-.148.006-.222h.011l.016-.213z"/>
            <path fill="#F44A3B" d="M37.433 43.574a1.635 1.635 0 0 1-1.085-2.034l5.036-16.82a1.62 1.62 0 0 1 2.022-1.092 1.635 1.635 0 0 1 1.084 2.035l-5.036 16.82a1.62 1.62 0 0 1-2.021 1.091"/>
        </g>
        <g transform="translate(17 4)">
            <mask id="aA" fill="#fff">
                <use xlink:href="#ay"/>
            </mask>
            <path fill="url(#az)" d="M.451 24.98c11.008-4.919 23.466-1.595 27.652-.215.985.324 2.079.04 2.75-.743 2.22-2.595 2.25-5.422 1.96-7.184a2.538 2.538 0 0 0-1.981-2.053C9.26 10.13 5.316.471 5.316.471L.45 24.98z" mask="url(#aA)"/>
        </g>
        <g>
            <path fill="#F46856" d="M22.81 17.614c-1.376 6.445-4.224 11.412-6.701 11.965a1.822 1.822 0 0 1-.871.014c-2.643-.607-3.539-6.944-2.005-14.164 1.539-7.22 4.928-12.581 7.572-11.978.504.113.945.438 1.315.937 1.585 2.115 1.934 7.384.69 13.226"/>
            <path fill="#F44A3B" d="M23.348 14.338a34.77 34.77 0 0 1-.539 3.276 33.964 33.964 0 0 1-1.536 5.197c-1.47 3.776-3.41 6.377-5.164 6.768-1.335-1.78-1.796-5.806-1.16-10.518l.001-.004a.735.735 0 0 1 .016-.103c.114-.85.265-1.718.453-2.601.204-.958.44-1.88.704-2.763l.02-.071c1.51-5.022 3.879-8.661 5.977-9.131 1.28 1.71 1.755 5.482 1.228 9.95"/>
        </g>
        <g transform="translate(38 16)">
            <mask id="aC" fill="#fff">
                <use xlink:href="#aB"/>
            </mask>
            <path d="M3.089 1.252c-.245 1.938-.9 5.196-2.652 8.333a.953.953 0 0 0 .613 1.403c1.477.332 3.944.92 5.9 1.556 1.446.471 3.06.077 4.067-1.06 1.298-1.47 2.472-3.969 1.375-7.867-.259-.917-1.006-1.612-1.928-1.847-1.42-.362-3.66-.968-5.555-1.63a1.4 1.4 0 0 0-.461-.08c-.667 0-1.27.485-1.36 1.192" mask="url(#aC)"/>
        </g>
        <g transform="translate(14 13)">
            <mask id="aE" fill="#fff">
                <use xlink:href="#aD"/>
            </mask>
            <path d="M2.476.271c-.37.017-.71.236-.911.578C1.095 1.672.417 3.157.493 4.8c.021.462.28.873.68 1.06.008.002.012.007.02.013.064.027.132.058.205.09l-.001.004c1.666.784 5.4 2.64 6.378 3.859.61-1.6 1.145-3.408 1.55-5.347.242-1.151.42-2.281.544-3.37A287.11 287.11 0 0 1 2.686.271a.435.435 0 0 0-.084-.005.448.448 0 0 0-.054-.004.31.31 0 0 0-.072.008" mask="url(#aE)"/>
        </g>
        <path fill="#1D125C" d="M16.88 16.344c-.322 1.646-1.202 2.826-1.965 2.636-.763-.191-1.119-1.678-.796-3.324.324-1.646 1.204-2.826 1.966-2.636.763.19 1.119 1.678.796 3.324"/>
        <g transform="translate(-1)">
            <mask id="aG" fill="#fff">
                <use xlink:href="#aF"/>
            </mask>
            <path d="M3.116.526L.2 3.503 7.88 9.565l.91-1.004z" mask="url(#aG)"/>
        </g>
        <g transform="translate(-7 10)">
            <mask id="aI" fill="#fff">
                <use xlink:href="#aH"/>
            </mask>
            <path d="M0 3.651l12.573 1.183.31-2.011L.56.123z" mask="url(#aI)"/>
        </g>
        <g transform="translate(-5 18)">
            <mask id="aK" fill="#fff">
                <use xlink:href="#aJ"/>
            </mask>
            <path d="M.268 4.103l1.5 2.678 8.92-4.477-.88-1.793z" mask="url(#aK)"/>
        </g>
        <g fill="#FBBFCE">
            <path d="M39.89 45.486a36.889 36.889 0 0 1 1.52-3.737c1.151-.27 1.933-1.015 2.495-2.08.562-1.067.818-2.269 1.067-3.454l.384-1.823c.172-.82.344-1.686.1-2.487-.111-.363-.342-.728-.702-.816-.386-.094-.774.163-1.035.471-1.049 1.236-.845 3.247-1.937 4.445-.6.657-1.49.946-2.355 1.101-.866.155-1.757.208-2.584.512a.333.333 0 0 1-.025.01c-1.096.412-1.812 1.516-1.82 2.714-.011 1.792.243 3.23 1.075 4.68.205.355.596.538.998.514.62-.036 1.32.142 1.979.008.324-.067.73.261.84-.058"/>
            <path d="M34.787 31.789c.72-.538 1.805-.583 2.643-.636a6.845 6.845 0 0 1 3.703.811c.978.538 1.89 1.453 1.928 2.589.016.447-.107.884-.228 1.314l-.255.908c-.152.54-.308 1.09-.59 1.573-.53.911-1.481 1.52-2.493 1.75-1.011.229-2.077.107-3.068-.201-.815-.254-1.62-.654-2.156-1.332-1.073-1.358-.743-3.375-.402-4.945.098-.454.21-.915.447-1.312.126-.21.286-.381.47-.52"/>
        </g>
        <g transform="translate(34 39)">
            <mask id="aN" fill="#fff">
                <use xlink:href="#aL"/>
            </mask>
            <path fill="url(#aM)" d="M38.122.111s-3.595 2.08-7.392 8.769c-4.945 2.365-11.762 5.373-17.545 7.013-3.118.885-6.284-1.314-6.482-4.535a44.338 44.338 0 0 1-.012-4.955c.104-2.04-1.997-3.563-3.877-2.737l-.1.045a2.794 2.794 0 0 0-1.55 2.036 45.028 45.028 0 0 0-.607 5.273c-.444 7.83 5.9 14.4 13.784 14.347a69.136 69.136 0 0 0 10.513-.865 78.195 78.195 0 0 0-.555 2.474c-.864 4.142-1.548 8.884-1.942 14.301 0 0 9.797 15.502 36.117 4.096 0 0-2.856-35.382-12.13-45.262h-8.222z" mask="url(#aN)"/>
        </g>
        <path fill="#F44C3D" d="M73 60s-5.45 4.9-15 6c.187-.883.383-1.73.588-2.556v-.004S67.788 61.846 73 60"/>
        <g transform="translate(107 43)">
            <mask id="aP" fill="#fff">
                <use xlink:href="#aO"/>
            </mask>
            <path d="M.12 5.61a5.29 5.29 0 0 0 10.58 0 5.29 5.29 0 0 0-10.58 0" mask="url(#aP)"/>
        </g>
        <path fill="#E1E2FF" d="M112.089 51.475c-.723-.12-1.089-.578-1.089-1.237v-.346h.951v.398c0 .322.202.458.522.458s.52-.136.52-.473c0-.375-.182-.645-.86-1.08-.822-.532-1.105-.953-1.105-1.522 0-.638.356-1.088 1.06-1.216V46h.824v.457c.713.12 1.079.57 1.079 1.23v.15h-.952v-.202c0-.323-.182-.465-.502-.465s-.504.142-.504.45c0 .345.183.607.86 1.05.824.54 1.107.952 1.107 1.552 0 .675-.375 1.133-1.088 1.253V52h-.823v-.525z"/>
        <g transform="translate(109 28)">
            <mask id="aR" fill="#fff">
                <use xlink:href="#aQ"/>
            </mask>
            <path d="M.034 4.953a4.797 4.797 0 0 0 9.594 0 4.797 4.797 0 0 0-9.594 0" mask="url(#aR)"/>
        </g>
        <path fill="#F2F4FB" d="M112 36v-6l4 2.952z"/>
        <g transform="translate(90 32)">
            <mask id="aT" fill="#fff">
                <use xlink:href="#aS"/>
            </mask>
            <path d="M.183 7.11a6.886 6.886 0 0 0 6.886 6.886 6.886 6.886 0 0 0 0-13.772A6.886 6.886 0 0 0 .183 7.11" mask="url(#aT)"/>
        </g>
        <path fill="#F2F4FB" d="M98.929 35c-.595.002-1.27.285-1.929 1.16-.66-.875-1.334-1.158-1.929-1.16-1.223-.005-2.142 1.23-2.067 2.594C93.197 41.085 97 43 97 43s3.803-1.915 3.996-5.406c.075-1.365-.844-2.599-2.067-2.594"/>
    </g>
</svg>
